HIERARCHY
ROOT root
{
	OFFSET	0	13.1	24.9
	CHANNELS 6  Xposition Yposition Zposition Xrotation Yrotation Zrotation
	JOINT spine_1
	{
		OFFSET	0	9.99999	0
		CHANNELS 3  Xrotation Yrotation Zrotation
		JOINT spine_2
		{
			OFFSET	0	112	-10
			CHANNELS 3  Xrotation Yrotation Zrotation
			JOINT spine_3
			{
				OFFSET	0	206.5	19.3
				CHANNELS 3  Xrotation Yrotation Zrotation
				JOINT spine_4
				{
					OFFSET	0	110.4	14.6
					CHANNELS 3  Xrotation Yrotation Zrotation
					JOINT neck_1
					{
						OFFSET	0	71.8	-50.3
						CHANNELS 3  Xrotation Yrotation Zrotation
						JOINT neck_2
						{
							OFFSET	0	86.2	-25.8
							CHANNELS 3  Xrotation Yrotation Zrotation
							JOINT head_ee
							{
								OFFSET	0	179.8	-8.7
								CHANNELS 3  Xrotation Yrotation Zrotation
								End Site
								{
									OFFSET	1	0	0
								}
							}
						}
					}
					JOINT left_clavicle
					{
						OFFSET	-43.2	22.4	-70.8
						CHANNELS 3  Xrotation Yrotation Zrotation
						JOINT left_shoulder
						{
							OFFSET	-93.9	-5.79999	48.7
							CHANNELS 3  Xrotation Yrotation Zrotation
							JOINT left_elbow
							{
								OFFSET	-291.4	-30.8	15.2
								CHANNELS 3  Xrotation Yrotation Zrotation
								JOINT left_lowarm_twist
								{
									OFFSET	-110.7	-3.89999	13.6
									CHANNELS 3  Xrotation Yrotation Zrotation
									JOINT left_hand
									{
										OFFSET	-110.7	-3.89999	13.6
										CHANNELS 3  Xrotation Yrotation Zrotation
										JOINT left_ee
										{
											OFFSET	-80.8	-5.10001	12.1
											CHANNELS 3  Xrotation Yrotation Zrotation
											End Site
											{
												OFFSET	1	0	0
											}
										}
									}
								}
							}
						}
					}
					JOINT right_clavicle
					{
						OFFSET	43.2	22.4	-70.8
						CHANNELS 3  Xrotation Yrotation Zrotation
						JOINT right_shoulder
						{
							OFFSET	93.9	-5.79999	48.7
							CHANNELS 3  Xrotation Yrotation Zrotation
							JOINT right_elbow
							{
								OFFSET	291.4	-30.8	15.2
								CHANNELS 3  Xrotation Yrotation Zrotation
								JOINT right_lowarm_twist
								{
									OFFSET	110.7	-3.89999	13.6
									CHANNELS 3  Xrotation Yrotation Zrotation
									JOINT right_hand
									{
										OFFSET	110.7	-3.89999	13.6
										CHANNELS 3  Xrotation Yrotation Zrotation
										JOINT right_ee
										{
											OFFSET	80.8	-5.10001	12.1
											CHANNELS 3  Xrotation Yrotation Zrotation
											End Site
											{
												OFFSET	1	0	0
											}
										}
									}
								}
							}
						}
					}
				}
			}
		}
	}
	JOINT left_hip
	{
		OFFSET	-82.8	-127.5	0.300001
		CHANNELS 3  Xrotation Yrotation Zrotation
		JOINT left_knee
		{
			OFFSET	-28.2	-396.7	2.2
			CHANNELS 3  Xrotation Yrotation Zrotation
			JOINT left_ankle
			{
				OFFSET	-11.7	-411.3	35.4
				CHANNELS 3  Xrotation Yrotation Zrotation
				JOINT left_toes
				{
					OFFSET	0	-60	-88.6
					CHANNELS 3  Xrotation Yrotation Zrotation
					JOINT left_foot_ee
					{
						OFFSET	-22.5	-16.5	-42.2
						CHANNELS 3  Xrotation Yrotation Zrotation
						End Site
						{
							OFFSET	1	0	0
						}
					}
				}
			}
		}
	}
	JOINT right_hip
	{
		OFFSET	82.8	-127.5	0.300001
		CHANNELS 3  Xrotation Yrotation Zrotation
		JOINT right_knee
		{
			OFFSET	28.2	-396.7	2.2
			CHANNELS 3  Xrotation Yrotation Zrotation
			JOINT right_ankle
			{
				OFFSET	11.7	-411.3	35.4
				CHANNELS 3  Xrotation Yrotation Zrotation
				JOINT right_toes
				{
					OFFSET	0	-60	-88.6
					CHANNELS 3  Xrotation Yrotation Zrotation
					JOINT right_foot_ee
					{
						OFFSET	22.5	-16.5	-42.2
						CHANNELS 3  Xrotation Yrotation Zrotation
						End Site
						{
							OFFSET	1	0	0
						}
					}
				}
			}
		}
	}
}
MOTION
Frames: 10
Frame Time: 0.02
391.555 721.904 -1204.45 -151.089538269 -67.445571026 -152.646034332 5.75198 0.547575 3.16667 5.7575 0.345068 3.19506 5.77078 -0.0109251 3.2136 5.75671 0.49648 3.17507 -9.2694 18.0071 -3.99203 -9.59092 36.5364 0.604424 -0.0 0.0 -0.0 -7.90573 12.8623 -11.857 -21.5187 -8.47485 69.9067 1.54087 -37.3521 0.520867 45.2595 -0.650712 -5.59676 -0.493687 25.8426 7.43702 -0.0 0.0 -0.0 10.9346 2.97813 -21.7591 -35.4187 56.8799 -61.6869 0.792494 21.4338 -0.149988 49.6549 0.944219 6.07662 -7.47003 -28.8703 30.7875 0.0 0.0 0.0 21.4024 71.7307 -17.1051 -10.367 0.286083 1.56312 24.8345 -29.8826 -4.11721 -6.26764 0.0 0.0 -0.0 0.0 -0.0 17.8142 15.0313 -5.66446 -11.8746 -0.303964 -1.79374 15.5303 8.88699 2.25317 15.3753 -0.0 -0.0 0.0 0.0 0.0 
390.229978281 716.473 -1215.15511641 -156.202189832 -64.8139386031 -158.585511608 5.65139 0.407115 3.28779 5.65738 0.197196 3.30701 5.66253 -0.176799 3.30816 5.64743 0.347592 3.29461 -9.98673 16.2376 -3.33404 -10.3366 32.8154 0.9948 -0.0 0.0 -0.0 -8.16558 10.8986 -12.9564 -21.8637 -9.17793 70.3496 1.59935 -38.3859 0.556764 47.9956 -0.829083 -5.8981 -0.740515 25.041 5.72531 -0.0 0.0 -0.0 11.1579 5.34333 -22.3275 -35.0732 56.5955 -62.2666 0.760549 20.644 -0.138519 54.77 1.33106 6.60509 -7.52907 -29.5388 30.473 0.0 0.0 0.0 16.7277 74.0841 -13.5472 -10.6174 0.289473 1.60139 24.0912 -31.7598 -4.1149 -5.47325 0.0 0.0 -0.0 0.0 -0.0 17.6505 16.1371 -4.85866 -12.3576 -0.308408 -1.86771 13.9239 10.3685 2.05076 15.1082 -0.0 -0.0 0.0 0.0 0.0 
390.518523769 716.473 -1215.18689513 -157.452173537 -63.3962763201 -159.974885711 5.65139 0.407115 3.28779 5.65738 0.197196 3.30701 5.66253 -0.176799 3.30816 5.64743 0.347592 3.29461 -9.98673 16.2376 -3.33404 -10.3366 32.8154 0.9948 -0.0 0.0 -0.0 -8.16558 10.8986 -12.9564 -21.8637 -9.17793 70.3496 1.59935 -38.3859 0.556764 47.9956 -0.829083 -5.8981 -0.740515 25.041 5.72531 -0.0 0.0 -0.0 11.1579 5.34333 -22.3275 -35.0732 56.5955 -62.2666 0.760549 20.644 -0.138519 54.77 1.33106 6.60509 -7.52907 -29.5388 30.473 0.0 0.0 0.0 16.7277 74.0841 -13.5472 -10.6174 0.289473 1.60139 24.0912 -31.7598 -4.1149 -5.47325 0.0 0.0 -0.0 0.0 -0.0 17.6505 16.1371 -4.85866 -12.3576 -0.308408 -1.86771 13.9239 10.3685 2.05076 15.1082 -0.0 -0.0 0.0 0.0 0.0 
394.566114743 706.703 -1234.99323801 -164.301185845 -56.4707372469 -169.159565163 5.56138 0.350787 3.87269 5.56972 0.103837 3.88713 5.56836 -0.341657 3.8735 5.54753 0.273905 3.87887 -11.1035 14.6128 -1.59944 -11.4928 28.6829 2.52471 -0.0 0.0 -0.0 -7.97439 7.39725 -13.6932 -20.4785 -13.1916 68.5693 1.71621 -40.3665 0.630914 50.0739 -0.974103 -6.12117 -1.93196 19.752 -3.54189 -0.0 0.0 -0.0 10.8291 3.77174 -21.5642 -39.2867 55.7905 -60.3691 0.815464 21.9964 -0.158486 55.9492 1.42686 6.72193 -5.76703 -20.153 27.2987 0.0 0.0 0.0 38.9409 82.3049 -37.929 -20.7337 0.286195 3.15155 30.0842 -32.9674 -5.01169 -12.1827 0.0 0.0 -0.0 0.0 -0.0 21.1616 21.9746 -4.07709 -23.0536 -0.246892 -3.50533 16.6108 5.31838 2.35985 17.3021 -0.0 -0.0 0.0 0.0 0.0 
406.477129381 711.292 -1232.29017519 -167.787335738 -52.0557136452 -173.572068889 5.37212 0.613708 4.2721 5.3822 0.340877 4.30242 5.39803 -0.166015 4.31269 5.37246 0.516538 4.28491 -14.9161 14.4978 -0.651261 -15.6647 28.1078 4.44205 -0.0 0.0 -0.0 -7.69765 5.11121 -13.8308 -17.0827 -12.8251 65.2938 1.88863 -43.0891 0.745704 46.1171 -0.705065 -5.69211 -1.58385 17.4898 -2.52111 -0.0 0.0 -0.0 10.3689 -3.28265 -20.2047 -44.2575 55.0718 -58.0041 0.81036 21.8718 -0.15658 55.4605 1.38686 6.67375 -5.26778 -14.9666 27.7435 0.0 0.0 0.0 114.343 84.9867 -116.767 -21.9137 0.267994 3.33169 24.3711 -31.7262 -4.15319 -14.3182 0.0 0.0 -0.0 0.0 -0.0 29.7782 24.6246 -9.33051 -31.3171 0.00863144 -4.74669 23.0484 -6.03428 3.10165 19.3802 -0.0 -0.0 0.0 0.0 0.0 
407.155030362 711.292 -1231.91605819 -168.153631174 -50.6820417848 -174.040933466 5.37212 0.613708 4.2721 5.3822 0.340877 4.30242 5.39803 -0.166015 4.31269 5.37246 0.516538 4.28491 -14.9161 14.4978 -0.651261 -15.6647 28.1078 4.44205 -0.0 0.0 -0.0 -7.69765 5.11121 -13.8308 -17.0827 -12.8251 65.2938 1.88863 -43.0891 0.745704 46.1171 -0.705065 -5.69211 -1.58385 17.4898 -2.52111 -0.0 0.0 -0.0 10.3689 -3.28265 -20.2047 -44.2575 55.0718 -58.0041 0.81036 21.8718 -0.15658 55.4605 1.38686 6.67375 -5.26778 -14.9666 27.7435 0.0 0.0 0.0 114.343 84.9867 -116.767 -21.9137 0.267994 3.33169 24.3711 -31.7262 -4.15319 -14.3182 0.0 0.0 -0.0 0.0 -0.0 29.7782 24.6246 -9.33051 -31.3171 0.00863144 -4.74669 23.0484 -6.03428 3.10165 19.3802 -0.0 -0.0 0.0 0.0 0.0 
407.181353297 711.292 -1231.90109074 -168.167377528 -50.6282841511 -174.058708669 5.37212 0.613708 4.2721 5.3822 0.340877 4.30242 5.39803 -0.166015 4.31269 5.37246 0.516538 4.28491 -14.9161 14.4978 -0.651261 -15.6647 28.1078 4.44205 -0.0 0.0 -0.0 -7.69765 5.11121 -13.8308 -17.0827 -12.8251 65.2938 1.88863 -43.0891 0.745704 46.1171 -0.705065 -5.69211 -1.58385 17.4898 -2.52111 -0.0 0.0 -0.0 10.3689 -3.28265 -20.2047 -44.2575 55.0718 -58.0041 0.81036 21.8718 -0.15658 55.4605 1.38686 6.67375 -5.26778 -14.9666 27.7435 0.0 0.0 0.0 114.343 84.9867 -116.767 -21.9137 0.267994 3.33169 24.3711 -31.7262 -4.15319 -14.3182 0.0 0.0 -0.0 0.0 -0.0 29.7782 24.6246 -9.33051 -31.3171 0.00863144 -4.74669 23.0484 -6.03428 3.10165 19.3802 -0.0 -0.0 0.0 0.0 0.0 
407.619234616 711.292 -1231.64716283 -168.391081264 -49.7292554379 -174.349962801 5.37212 0.613708 4.2721 5.3822 0.340877 4.30242 5.39803 -0.166015 4.31269 5.37246 0.516538 4.28491 -14.9161 14.4978 -0.651261 -15.6647 28.1078 4.44205 -0.0 0.0 -0.0 -7.69765 5.11121 -13.8308 -17.0827 -12.8251 65.2938 1.88863 -43.0891 0.745704 46.1171 -0.705065 -5.69211 -1.58385 17.4898 -2.52111 -0.0 0.0 -0.0 10.3689 -3.28265 -20.2047 -44.2575 55.0718 -58.0041 0.81036 21.8718 -0.15658 55.4605 1.38686 6.67375 -5.26778 -14.9666 27.7435 0.0 0.0 0.0 114.343 84.9867 -116.767 -21.9137 0.267994 3.33169 24.3711 -31.7262 -4.15319 -14.3182 0.0 0.0 -0.0 0.0 -0.0 29.7782 24.6246 -9.33051 -31.3171 0.00863144 -4.74669 23.0484 -6.03428 3.10165 19.3802 -0.0 -0.0 0.0 0.0 0.0 
407.902802675 711.292 -1231.47766449 -168.531113547 -49.1421164844 -174.534291782 5.37212 0.613708 4.2721 5.3822 0.340877 4.30242 5.39803 -0.166015 4.31269 5.37246 0.516538 4.28491 -14.9161 14.4978 -0.651261 -15.6647 28.1078 4.44205 -0.0 0.0 -0.0 -7.69765 5.11121 -13.8308 -17.0827 -12.8251 65.2938 1.88863 -43.0891 0.745704 46.1171 -0.705065 -5.69211 -1.58385 17.4898 -2.52111 -0.0 0.0 -0.0 10.3689 -3.28265 -20.2047 -44.2575 55.0718 -58.0041 0.81036 21.8718 -0.15658 55.4605 1.38686 6.67375 -5.26778 -14.9666 27.7435 0.0 0.0 0.0 114.343 84.9867 -116.767 -21.9137 0.267994 3.33169 24.3711 -31.7262 -4.15319 -14.3182 0.0 0.0 -0.0 0.0 -0.0 29.7782 24.6246 -9.33051 -31.3171 0.00863144 -4.74669 23.0484 -6.03428 3.10165 19.3802 -0.0 -0.0 0.0 0.0 0.0 
408.495855983 711.292 -1231.10994558 -168.812368962 -47.9010011549 -174.909674329 5.37212 0.613708 4.2721 5.3822 0.340877 4.30242 5.39803 -0.166015 4.31269 5.37246 0.516538 4.28491 -14.9161 14.4978 -0.651261 -15.6647 28.1078 4.44205 -0.0 0.0 -0.0 -7.69765 5.11121 -13.8308 -17.0827 -12.8251 65.2938 1.88863 -43.0891 0.745704 46.1171 -0.705065 -5.69211 -1.58385 17.4898 -2.52111 -0.0 0.0 -0.0 10.3689 -3.28265 -20.2047 -44.2575 55.0718 -58.0041 0.81036 21.8718 -0.15658 55.4605 1.38686 6.67375 -5.26778 -14.9666 27.7435 0.0 0.0 0.0 114.343 84.9867 -116.767 -21.9137 0.267994 3.33169 24.3711 -31.7262 -4.15319 -14.3182 0.0 0.0 -0.0 0.0 -0.0 29.7782 24.6246 -9.33051 -31.3171 0.00863144 -4.74669 23.0484 -6.03428 3.10165 19.3802 -0.0 -0.0 0.0 0.0 0.0 
